PathFileType	3	(X/Y/Z)	dance_move_1__fused_aligned.trc
DataRate	CameraRate	NumFrames	NumMarkers	Units	OrigDataRate	OrigDataStartFrame	OrigNumFrames
100.0	100.0	18	19	mm	100.0	806	890
Frame#	Time	pelvis			neck			head			hip_left			hip_right			knee_left			knee_right			ankle_left			ankle_right			heel_left			heel_right			toe_left			toe_right			shoulder_left			shoulder_right			elbow_left			elbow_right			wrist_left			wrist_right			
		X1	Y1	Z1	X2	Y2	Z2	X3	Y3	Z3	X4	Y4	Z4	X5	Y5	Z5	X6	Y6	Z6	X7	Y7	Z7	X8	Y8	Z8	X9	Y9	Z9	X10	Y10	Z10	X11	Y11	Z11	X12	Y12	Z12	X13	Y13	Z13	X14	Y14	Z14	X15	Y15	Z15	X16	Y16	Z16	X17	Y17	Z17	X18	Y18	Z18	X19	Y19	Z19	
806	8.05000	39.655699	956.645964	163.262306	51.082049	1539.122019	88.115825	55.524283	1699.273068	-5.042101	-37.439068	957.626798	166.504268	116.750425	955.665106	160.020219	-99.613649	526.439569	109.388358	169.953390	530.674404	55.786426	-110.646035	130.981715	218.357321	202.745794	124.111987	99.839807	-105.058764	83.869008	255.076763	200.920910	72.686439	131.710161	-139.295350	73.516752	33.761927	237.048813	85.515233	-91.653932	-133.378085	1477.474348	115.685250	233.250897	1461.593843	107.086215	-230.246688	1197.158278	103.659219	289.075598	1170.653702	75.669957	-243.081435	976.502567	-20.541714	298.345379	947.396325	-67.266823
807	8.06000	37.897100	957.782771	164.456404	48.842824	1540.532009	91.009270	53.042473	1700.965060	-1.768194	-39.154643	958.763634	167.509182	114.948743	956.801886	161.403506	-98.161942	526.331338	113.441723	167.550465	531.263240	58.515459	-109.254975	130.850868	221.969265	200.718801	124.518882	101.024239	-103.901144	83.766230	258.758155	198.987497	73.031776	132.791549	-136.124090	73.072066	37.110167	234.618758	86.105470	-90.641774	-135.517072	1478.570986	118.015591	231.037062	1463.195956	110.226380	-230.243109	1197.777405	106.107703	286.478306	1172.405417	78.807900	-238.797436	977.664460	-19.467366	295.656208	949.753414	-64.798767
808	8.07000	36.138500	958.919579	165.650503	46.603600	1541.941999	93.902715	50.560662	1702.657052	1.505713	-40.870217	959.900469	168.514095	113.147061	957.938666	162.786793	-96.710234	526.223107	117.495087	165.147540	531.852076	61.244492	-107.863914	130.720022	225.581209	198.691809	124.925777	102.208671	-102.743525	83.663451	262.439547	197.054085	73.377114	133.872936	-132.952830	72.627380	40.458407	232.188702	86.695708	-89.629617	-137.656059	1479.667624	120.345932	228.823226	1464.798068	113.366545	-230.239529	1198.396533	108.556187	283.881014	1174.157132	81.945842	-234.513437	978.826353	-18.393018	292.967036	952.110503	-62.330711
809	8.08000	33.967031	959.241664	167.624225	43.685013	1542.546070	96.810933	47.483717	1703.509164	4.664828	-43.036485	960.180324	170.207983	110.970364	958.302982	165.040375	-96.332821	525.917125	121.225909	163.274541	532.202713	63.517841	-107.147442	130.368999	229.344991	197.044334	125.204175	104.031216	-102.234107	83.319971	266.269482	195.478007	73.631925	135.650321	-130.474400	72.208566	43.940896	230.067874	87.106251	-87.925434	-140.546712	1479.910791	122.649038	225.953806	1465.675535	116.714368	-230.811533	1197.764603	110.580577	281.000427	1174.783540	85.953760	-230.883439	977.795077	-17.358436	290.317347	952.238295	-57.847995
810	8.09000	31.795562	959.563749	169.597947	40.766426	1543.150140	99.719150	44.406771	1704.361275	7.823943	-45.202752	960.460178	171.901870	108.793668	958.667298	167.293956	-95.955408	525.611143	124.956732	161.401542	532.553351	65.791190	-106.430969	130.017977	233.108774	195.396859	125.482573	105.853762	-101.724689	82.976491	270.099417	193.901929	73.886737	137.427706	-127.995970	71.789753	47.423385	227.947047	87.516794	-86.221251	-143.437365	1480.153958	124.952144	223.084385	1466.553001	120.062192	-231.383537	1197.132673	112.604966	278.119839	1175.409947	89.961678	-227.253441	976.763801	-16.323853	287.667659	952.366086	-53.365278
811	8.10000	29.624093	959.885834	171.571669	37.847838	1543.754211	102.627368	41.329826	1705.213387	10.983059	-47.369020	960.740032	173.595758	106.616972	959.031614	169.547538	-95.577995	525.305161	128.687554	159.528542	532.903988	68.064540	-105.714496	129.666954	236.872556	193.749384	125.760971	107.676307	-101.215271	82.633011	273.929352	192.325852	74.141549	139.205090	-125.517539	71.370940	50.905874	225.826219	87.927337	-84.517068	-146.328017	1480.397125	127.255250	220.214965	1467.430468	123.410015	-231.955541	1196.500744	114.629356	275.239252	1176.036354	93.969596	-223.623443	975.732525	-15.289270	285.017970	952.493878	-48.882561
812	8.11000	27.452624	960.207919	173.545391	34.929251	1544.358282	105.535586	38.252880	1706.065499	14.142174	-49.535288	961.019886	175.289645	104.440276	959.395930	171.801120	-95.200583	524.999180	132.418377	157.655543	533.254626	70.337889	-104.998024	129.315932	240.636339	192.101910	126.039369	109.498853	-100.705854	82.289532	277.759288	190.749774	74.396361	140.982475	-123.039109	70.952126	54.388363	223.705391	88.337881	-82.812885	-149.218670	1480.640293	129.558356	217.345544	1468.307935	126.757838	-232.527545	1195.868814	116.653746	272.358665	1176.662762	97.977514	-219.993444	974.701249	-14.254688	282.368282	952.621669	-44.399845
813	8.12000	25.281155	960.530004	175.519113	32.010664	1544.962353	108.443803	35.175934	1706.917610	17.301289	-51.701555	961.299740	176.983533	102.263580	959.760246	174.054702	-94.823170	524.693198	136.149199	155.782544	533.605264	72.611238	-104.281551	128.964910	244.400121	190.454435	126.317767	111.321398	-100.196436	81.946052	281.589223	189.173696	74.651173	142.759860	-120.560679	70.533313	57.870853	221.584564	88.748424	-81.108702	-152.109322	1480.883460	131.861462	214.476123	1469.185401	130.105661	-233.099549	1195.236884	118.678135	269.478078	1177.289169	101.985432	-216.363446	973.669972	-13.220105	279.718593	952.749460	-39.917128
814	8.13000	23.109686	960.852089	177.492835	29.092077	1545.566423	111.352021	32.098989	1707.769722	20.460404	-53.867823	961.579594	178.677420	100.086884	960.124561	176.308283	-94.445757	524.387216	139.880022	153.909545	533.955901	74.884588	-103.565078	128.613887	248.163904	188.806960	126.596165	113.143944	-99.687018	81.602572	285.419158	187.597619	74.905984	144.537245	-118.082249	70.114500	61.353342	219.463736	89.158967	-79.404519	-154.999975	1481.126627	134.164568	211.606703	1470.062868	133.453485	-233.671553	1194.604954	120.702525	266.597490	1177.915577	105.993349	-212.733448	972.638696	-12.185522	277.068904	952.877252	-35.434412
815	8.14000	20.938217	961.174174	179.466557	26.173489	1546.170494	114.260238	29.022043	1708.621833	23.619519	-56.034091	961.859448	180.371308	97.910187	960.488877	178.561865	-94.068344	524.081234	143.610844	152.036546	534.306539	77.157937	-102.848606	128.262865	251.927686	187.159485	126.874563	114.966489	-99.177600	81.259092	289.249093	186.021541	75.160796	146.314629	-115.603819	69.695687	64.835831	217.342908	89.569510	-77.700336	-157.890627	1481.369794	136.467674	208.737282	1470.940334	136.801308	-234.243557	1193.973024	122.726915	263.716903	1178.541984	110.001267	-209.103449	971.607420	-11.150940	274.419216	953.005043	-30.951695
816	8.15000	18.766748	961.496260	181.440279	23.254902	1546.774565	117.168456	25.945097	1709.473945	26.778634	-58.200358	962.139302	182.065195	95.733491	960.853193	180.815447	-93.690931	523.775252	147.341667	150.163547	534.657176	79.431286	-102.132133	127.911842	255.691469	185.512011	127.152962	116.789035	-98.668182	80.915612	293.079029	184.445463	75.415608	148.092014	-113.125389	69.276873	68.318320	215.222081	89.980054	-75.996153	-160.781280	1481.612961	138.770780	205.867862	1471.817801	140.149131	-234.815561	1193.341094	124.751305	260.836316	1179.168391	114.009185	-205.473451	970.576144	-10.116357	271.769527	953.132835	-26.468978
817	8.16000	16.595279	961.818345	183.414001	20.336315	1547.378636	120.076674	22.868152	1710.326057	29.937749	-60.366626	962.419157	183.759083	93.556795	961.217509	183.069028	-93.313518	523.469271	151.072489	148.290548	535.007814	81.704636	-101.415660	127.560820	259.455251	183.864536	127.431360	118.611580	-98.158764	80.572132	296.908964	182.869386	75.670420	149.869399	-110.646959	68.858060	71.800809	213.101253	90.390597	-74.291970	-163.671933	1481.856128	141.073886	202.998441	1472.695267	143.496955	-235.387565	1192.709165	126.775694	257.955729	1179.794799	118.017103	-201.843453	969.544868	-9.081774	269.119839	953.260626	-21.986262
818	8.17000	14.423810	962.140430	185.387723	17.417728	1547.982706	122.984891	19.791206	1711.178168	33.096864	-62.532894	962.699011	185.452970	91.380099	961.581825	185.322610	-92.936105	523.163289	154.803312	146.417548	535.358452	83.977985	-100.699188	127.209797	263.219034	182.217061	127.709758	120.434126	-97.649346	80.228652	300.738899	181.293308	75.925232	151.646784	-108.168529	68.439247	75.283298	210.980425	90.801140	-72.587787	-166.562585	1482.099295	143.376992	200.129021	1473.572734	146.844778	-235.959569	1192.077235	128.800084	255.075141	1180.421206	122.025021	-198.213454	968.513592	-8.047191	266.470150	953.388417	-17.503545
819	8.18000	13.700257	962.109362	186.687285	15.610925	1548.076154	124.588907	17.933634	1711.474638	34.925004	-63.248081	962.614322	186.553622	90.648238	961.604380	186.821053	-92.113431	522.860940	157.570407	146.675654	535.753636	84.582040	-99.509700	126.784419	265.842259	182.959668	128.136331	121.370984	-96.598240	79.762003	303.361017	182.077264	76.355256	152.595507	-105.875633	68.282986	77.756395	211.821597	91.297594	-71.572593	-168.322570	1481.843824	144.345387	198.352150	1473.966837	149.150893	-236.191534	1191.483835	129.940981	253.729086	1180.888969	125.573116	-196.487612	967.410236	-6.258629	266.408351	953.080539	-12.211854
820	8.19000	12.976704	962.078294	187.986848	13.804123	1548.169601	126.192923	16.076061	1711.771108	36.753144	-63.963268	962.529634	187.654273	89.916377	961.626935	188.319496	-91.290757	522.558592	160.337502	146.933759	536.148820	85.186096	-98.320212	126.359040	268.465484	183.702274	128.562904	122.307842	-95.547134	79.295354	305.983134	182.861221	76.785280	153.544231	-103.582737	68.126725	80.229492	212.662768	91.794048	-70.557399	-170.082556	1481.588352	145.313783	196.575279	1474.360941	151.457009	-236.423498	1190.890436	131.081878	252.383031	1181.356732	129.121211	-194.761769	966.306880	-4.470067	266.346551	952.772661	-6.920164
821	8.20000	12.253150	962.047226	189.286410	11.997321	1548.263049	127.796939	14.218489	1712.067577	38.581284	-64.678455	962.444945	188.754925	89.184516	961.649491	189.817939	-90.468083	522.256243	163.104598	147.191865	536.544004	85.790152	-97.130725	125.933661	271.088709	184.444881	128.989477	123.244700	-94.496028	78.828705	308.605251	183.645178	77.215304	154.492954	-101.289840	67.970465	82.702588	213.503940	92.290502	-69.542205	-171.842541	1481.332881	146.282178	194.798407	1474.755044	153.763124	-236.655463	1190.297036	132.222774	251.036976	1181.824496	132.669307	-193.035926	965.203524	-2.681504	266.284752	952.464783	-1.628473
822	8.21000	11.529597	962.016158	190.585973	10.190518	1548.356497	129.400955	12.360916	1712.364047	40.409424	-65.393642	962.360257	189.855576	88.452655	961.672046	191.316381	-89.645409	521.953895	165.871693	147.449970	536.939189	86.394207	-95.941237	125.508282	273.711934	185.187488	129.416050	124.181559	-93.444922	78.362055	311.227369	184.429134	77.645328	155.441678	-98.996944	67.814204	85.175685	214.345111	92.786956	-68.527011	-173.602526	1481.077409	147.250574	193.021536	1475.149148	156.069240	-236.887427	1189.703636	133.363671	249.690921	1182.292259	136.217402	-191.310083	964.100168	-0.892942	266.222953	952.156905	3.663218
823	8.22000	10.806043	961.985090	191.885536	8.383716	1548.449944	131.004971	10.503343	1712.660516	42.237563	-66.108829	962.275569	190.956228	87.720794	961.694601	192.814824	-88.822735	521.651546	168.638788	147.708075	537.334373	86.998263	-94.751749	125.082904	276.335159	185.930094	129.842624	125.118417	-92.393816	77.895406	313.849486	185.213091	78.075352	156.390401	-96.704048	67.657943	87.648782	215.186282	93.283410	-67.511816	-175.362512	1480.821938	148.218969	191.244665	1475.543251	158.375355	-237.119392	1189.110237	134.504568	248.344866	1182.760022	139.765497	-189.584241	962.996812	0.895621	266.161153	951.849027	8.954908
